<?xml version="1.0" encoding="UTF-8" standalone="no"?>
<svg
   xmlns:dc="http://purl.org/dc/elements/1.1/"
   xmlns:cc="http://creativecommons.org/ns#"
   xmlns:rdf="http://www.w3.org/1999/02/22-rdf-syntax-ns#"
   xmlns:svg="http://www.w3.org/2000/svg"
   xmlns="http://www.w3.org/2000/svg"
   xmlns:sodipodi="http://sodipodi.sourceforge.net/DTD/sodipodi-0.dtd"
   xmlns:inkscape="http://www.inkscape.org/namespaces/inkscape"
   version="1.0"
   width="1310.000000pt"
   height="1005.000000pt"
   viewBox="0 0 1310.000000 1005.000000"
   preserveAspectRatio="xMidYMid meet"
   id="svg20"
   sodipodi:docname="field (1).svg"
   inkscape:version="0.92.3 (2405546, 2018-03-11)">
  <defs
     id="defs24" />
  <sodipodi:namedview
     pagecolor="#ffffff"
     bordercolor="#666666"
     borderopacity="1"
     objecttolerance="10"
     gridtolerance="10"
     guidetolerance="10"
     inkscape:pageopacity="0"
     inkscape:pageshadow="2"
     inkscape:window-width="1920"
     inkscape:window-height="1001"
     id="namedview22"
     showgrid="false"
     inkscape:zoom="0.4981409"
     inkscape:cx="403.62954"
     inkscape:cy="702.86289"
     inkscape:window-x="-9"
     inkscape:window-y="-9"
     inkscape:window-maximized="1"
     inkscape:current-layer="g18" />
  <metadata
     id="metadata2">
Created by potrace 1.15, written by Peter Selinger 2001-2017
<rdf:RDF>
  <cc:Work
     rdf:about="">
    <dc:format>image/svg+xml</dc:format>
    <dc:type
       rdf:resource="http://purl.org/dc/dcmitype/StillImage" />
  </cc:Work>
</rdf:RDF>
</metadata>
  <g
     transform="translate(0.000000,1005.000000) scale(0.100000,-0.100000)"
     fill="#000000"
     stroke="none"
     id="g18">
    <path
       d="M 0,5025 V 0 h 6550 6550 v 5025 5025 H 6550 0 Z m 11351.059,4667 c 17.236,-39.0549 312.941,-341 312.941,-341 l 350,-310 v 0 c 15,22 16,-66 14,-1225 l -3,-1249 -97,-27 -98,-27 v 483 484 h -490 -490 V 5030 2580 h 490 490 l 2,483 3,484 95,-27 95,-27 3,-1243 c 2,-1197 11.646,-1190.1018 -5.354,-1208.3692 C 12006.742,1024.541 11975,1021 11660,705 L 11326,370 H 6545 1765 l -335,335 c -345.9731,323.3519 -352.3327,317.6596 -352.3327,317.6596 0,0 -17.6673,33.3404 -17.6673,1220.3404 l -3.9924,1280.6001 73.6655,11.0192 c 40.3554,6.0365 83.3346,25 98.3346,30 L 1258,3575 l 2,-511 v -484 h 490 490 v 2450 2450 h -490 -490 v -496 -496 l -37,6 c -27,4 -32,3 -18,-4 12,-5 -101,-9 -302,-9 l -323,-1 V 5030 3580 h 342 c 188,0 339,-2 336,-5 -3,-3 -45,-17 -94,-30 -87,-24 -98,-25 -468,-25 -208,-1 -328.43445,-0.6615 -331.43445,2.3385 -3,3 -0.0919,-15.0425 -0.006,-1.0427 l 0.006,1.0427 L 360,5038 v 1507 l 142,-2 c 79,-2 237,-4 353,-5 l 210,-3 -3,1253 c -2,1210 -2,1252 16,1243 16,-8 68,40 351,323 182,182 329,335 325,339 -4,4 2159,7 4807,6 2648,-1 4751.159,-5.9962 4790.059,-7 z M 12758,6532 l -28,-3 V 5029 3530 l 28,-1 27,-2 -27,-4 c -17,-3 -28,-11 -29,-21 -1,-15 -2,-15 -6,1 -4,16 -30,17 -355,17 h -351 l -101,28 -101,27 348,3 347,2 v 1450 1450 l -347,2 -348,3 85,25 c 82,24 98,25 455,30 204,3 384,3 400,0 l 30,-5 z M 1230,5035 V 3620 h -25 -25 v 1415 1415 h 25 25 z m 10680,0 V 3620 h -25 -25 v 1415 1415 h 25 25 z"
       id="path4"
       inkscape:connector-curvature="0"
       sodipodi:nodetypes="ccccccccccccccccccccccccccccccsccccccscsccccccccccccccccccssccsscccccccsssscccccccccsscccccccccccccccccccccccccccccccc" />
    <path
       d="M1610 9201 c-184 -181 -338 -327 -342 -324 -5 2 -8 -300 -8 -671 l0 -676 501 0 c420 0 503 -2 515 -14 12 -12 14 -149 14 -919 l0 -905 68 -40 c95 -57 206 -176 260 -279 58 -112 82 -211 82 -340 0 -129 -19 -210 -77 -331 -54 -114 -157 -228 -264 -292 l-69 -42 0 -905 c0 -770 -2 -907 -14 -919 -12 -12 -95 -14 -515 -14 l-501 0 0 -676 c0 -371 4 -673 8 -670 5 3 156 -143 338 -325 l329 -329 2292 0 2293 0 0 1529 0 1528 -67 6 c-461 43 -817 240 -1080 598 -242 329 -328 793 -222 1199 56 215 167 425 313 594 84 97 241 226 346 285 65 37 182 91 245 114 157 57 207 67 344 67 l121 0 0 1540 0 1540 -2287 0 -2288 0 -335 -329z m2310 -1241 l0 -80 75 0 c68 0 75 -2 75 -20 0 -18 -7 -20 -75 -20 l-75 0 0 -80 c0 -79 0 -80 -25 -80 -25 0 -25 1 -25 80 l0 80 -75 0 c-68 0 -75 2 -75 20 0 18 7 20 75 20 l75 0 0 80 c0 79 0 80 25 80 25 0 25 -1 25 -80z m0 -2830 l0 -80 75 0 c68 0 75 -2 75 -20 0 -18 -7 -20 -75 -20 l-75 0 0 -80 c0 -79 0 -80 -25 -80 -25 0 -25 1 -25 80 l0 80 -75 0 c-68 0 -75 2 -75 20 0 18 7 20 75 20 l75 0 0 80 c0 79 0 80 25 80 25 0 25 -1 25 -80z m0 -2830 l0 -80 75 0 c68 0 75 -2 75 -20 0 -18 -7 -20 -75 -20 l-75 0 0 -80 c0 -79 0 -80 -25 -80 -25 0 -25 1 -25 80 l0 80 -80 0 c-73 0 -80 2 -80 20 0 18 7 20 80 20 l80 0 0 80 c0 79 0 80 25 80 25 0 25 -1 25 -80z"
       id="path6" />
    <path
       d="M6570 7990 l0 -1540 103 0 c127 0 196 -11 316 -50 554 -180 940 -668 991 -1256 55 -623 -320 -1222 -911 -1455 -28 -10 -104 -35 -169 -54 -94 -27 -137 -35 -202 -35 -46 0 -93 -3 -105 -6 l-23 -6 0 -1529 0 -1529 2293 0 2294 0 323 331 c199 204 328 328 336 325 12 -5 14 105 14 669 l0 675 -501 0 c-420 0 -503 2 -515 14 -12 12 -14 149 -14 919 l0 905 -68 40 c-105 62 -211 180 -266 294 -58 122 -76 199 -76 330 0 125 29 239 88 353 47 90 169 218 256 269 l66 39 0 904 c0 771 2 907 14 919 12 12 95 14 515 14 l501 0 0 675 c0 535 -3 673 -12 670 -7 -3 -161 142 -343 325 l-330 330 -2287 0 -2288 0 0 -1540z m2650 -30 l0 -80 75 0 c68 0 75 -2 75 -20 0 -18 -7 -20 -75 -20 l-75 0 0 -80 c0 -79 0 -80 -25 -80 -25 0 -25 1 -25 80 l0 80 -75 0 c-68 0 -75 2 -75 20 0 18 7 20 75 20 l75 0 0 80 c0 79 0 80 25 80 25 0 25 -1 25 -80z m0 -2830 l0 -80 75 0 c68 0 75 -2 75 -20 0 -18 -7 -20 -75 -20 l-75 0 0 -80 c0 -79 0 -80 -25 -80 -25 0 -25 1 -25 80 l0 80 -75 0 c-68 0 -75 2 -75 20 0 18 7 20 75 20 l75 0 0 80 c0 79 0 80 25 80 25 0 25 -1 25 -80z m0 -2830 l0 -80 75 0 c68 0 75 -2 75 -20 0 -18 -7 -20 -75 -20 l-75 0 0 -80 c0 -79 0 -80 -25 -80 -25 0 -25 1 -25 80 l0 80 -75 0 c-68 0 -75 2 -75 20 0 18 7 20 75 20 l75 0 0 80 c0 79 0 80 25 80 25 0 25 -1 25 -80z"
       id="path8" />
    <path
       d="M6182 6374 c-513 -135 -907 -563 -1007 -1094 -27 -140 -25 -382 3 -517 60 -282 190 -523 386 -718 166 -165 335 -267 576 -346 138 -45 167 -51 267 -56 l113 -6 2 1379 3 1379 -130 0 c-103 1 -147 -4 -213 -21z"
       id="path10" />
    <path
       d="M6570 5018 l0 -1378 101 0 c64 0 113 5 132 14 18 7 70 23 116 36 368 96 706 378 879 732 277 567 127 1269 -357 1672 -149 124 -277 195 -464 258 -117 39 -125 40 -264 42 l-143 1 0 -1377z"
       id="path12" />
    <path
       d="M2290 5025 l0 -606 58 39 c118 81 212 197 261 323 100 254 39 540 -157 733 -53 53 -138 116 -154 116 -5 0 -8 -272 -8 -605z"
       id="path14" />
    <path
       d="M10745 5604 c-62 -41 -162 -143 -205 -209 -174 -267 -132 -625 102 -853 51 -50 134 -112 151 -112 4 0 7 270 7 600 0 330 -3 600 -8 600 -4 0 -25 -12 -47 -26z"
       id="path16" />
    <rect
       style="fill:#000000;fill-opacity:0;stroke-width:7.5"
       id="rect3731"
       width="146.38507"
       height="58.554024"
       x="1057.9647"
       y="-3563.811"
       transform="scale(1,-1)" />
    <rect
       style="fill:#000000;fill-opacity:0;stroke-width:7.5"
       id="rect3733"
       width="18.630827"
       height="1.3307734"
       x="1191.0421"
       y="-3521.2261"
       transform="scale(1,-1)" />
    <rect
       style="fill:#000000;fill-opacity:0;stroke-width:7.5"
       id="rect3735"
       width="69.200211"
       height="51.900158"
       x="1152.4497"
       y="-3550.5034"
       transform="scale(1,-1)" />
    <path
       style="fill:#000000;fill-opacity:0;stroke-width:7.5"
       id="path3737"
       d="m 1115.3077,3527.9416 c 4.5188,4.2675 8.8468,8.7621 12.9869,13.401 6.7466,7.0623 15.5318,13.8473 25.4153,14.9076 3.8687,-0.03 5.7753,-2.8738 7.6325,-5.8542 1.9083,-3.5577 3.0076,-7.4732 4.4687,-11.2311 1.3784,-4.0658 3.0548,-8.0212 4.4856,-12.0666 0,0 -17.2489,-9.5198 -17.2489,-9.5198 v 0 c -1.3462,4.0493 -3.006,7.9868 -4.459,11.9983 -1.3906,3.6475 -2.451,7.436 -4.2479,10.9005 -1.6335,2.4842 -3.1211,4.5488 -6.3966,3.8665 -6.5514,-1.8072 -14.7999,-8.0877 12.9519,8.1933 0.4755,0.279 -0.9821,-0.5085 -1.4379,-0.8188 -1.371,-0.9338 -1.8937,-1.5728 -3.0966,-2.7666 -4.1195,-4.6596 -8.5335,-9.0373 -12.777,-13.5817 0,0 -18.277,-7.4284 -18.277,-7.4284 z"
       inkscape:connector-curvature="0" />
    <path
       style="fill:#000000;fill-opacity:0;stroke-width:7.5"
       id="path3739"
       d="m 1148.2433,3516.4306 c -4.9581,2.5164 -9.57,5.5085 -13.7871,9.1305 -2.9265,2.8066 -6.062,5.49 -8.3326,8.8782 -3.578,8.3772 15.8291,12.0687 18.2235,13.1475 0.053,0.023 3.1641,-1.1664 3.7106,-1.3736 6.3285,-2.953 12.0802,-6.8434 17.6708,-10.9846 5.5927,-4.8204 11.5821,-9.1534 17.2455,-13.8835 11.6643,-9.22 3.8319,-7.9832 -12.4327,-17.6572 -6.3196,0.2363 -10.6026,5.138 -14.8396,9.2414 -6.5756,7.0128 -12.341,14.797 -17.7601,22.7303 -2.0556,3.822 -5.8649,7.6216 -5.4294,12.2682 6.033,3.2849 11.8227,7.0624 18.0988,9.8547 0.636,0.2827 1.2293,-0.654 1.8432,-0.9826 3.5813,-1.9164 7.0339,-3.9075 10.4053,-6.1783 6.4888,-4.2141 12.5708,-9.0072 18.5536,-13.9032 3.564,-2.8026 7.3062,-5.5702 11.4439,-7.477 0.075,-0.037 1.4545,-0.63 1.5967,-0.9023 3.9989,-7.6479 -12.6785,-9.441 -17.5213,-11.6526 -0.5595,-0.2558 -1.1282,0.4912 -1.6853,0.752 -0.7515,0.3517 -1.4935,0.7237 -2.2402,1.0855 -6.6712,3.6951 -11.8714,9.5154 -16.5552,15.4278 -1.7301,2.3571 -3.6616,4.5164 -4.891,7.1924 -0.414,0.901 -0.9095,2.4361 -0.6915,2.5726 5.7786,3.6193 11.9021,6.6561 17.8531,9.9841 6.0923,-3.7056 11.751,-8.169 17.1399,-12.8341 3.9431,-4.0738 10.7255,-6.9073 13.9169,-11.5423 1.7523,-8.5064 -12.8842,-14.5804 -20.2527,-11.3048 -3.0315,1.3477 -5.8925,3.2771 -8.6801,5.0496 -5.6204,3.9582 -11.4664,8.0052 -15.0586,13.9993 -0.1807,0.573 -0.4515,1.1249 -0.543,1.7187 -1.0261,6.6847 18.5631,12.1205 18.932,12.2851 0.5917,0.264 1.201,-0.4853 1.8047,-0.72 0.6195,-0.2408 1.2436,-0.4718 1.8654,-0.7073 2.5854,-1.4772 1.3517,-0.6652 3.7049,-2.4306 0,0 -16.6082,-10.554 -16.6082,-10.554 v 0 c -2.1478,1.4631 -1.015,0.8138 -3.4033,1.9393 -0.6,0.1823 -1.1838,0.426 -1.7991,0.546 -0.471,0.091 -1.8392,-0.1792 -1.4368,0.083 5.1953,3.3749 10.7873,6.1046 16.0336,9.3996 0.5018,0.315 -1.5723,0.123 -1.7196,-0.4507 -0.108,-0.4223 0.1343,-0.862 0.201,-1.293 3.1107,-5.8791 9.0983,-9.5292 14.3794,-13.2664 2.2629,-1.3637 3.6491,-2.2898 6.0297,-3.3842 0.7886,-0.3623 1.5787,-0.7576 2.426,-0.9453 0.5985,-0.1327 2.3397,0.3563 1.8402,4e-4 -14.2906,-10.1887 -21.7633,-8.9227 -14.8101,-9.9359 -0.9678,1.7041 -2.6459,2.8637 -4.1646,4.0586 -3.0436,2.3947 -6.212,4.6337 -9.1314,7.1852 -2.9774,2.5209 -6.029,4.8879 -9.1625,7.2122 -1.9053,1.4132 -3.4678,2.7056 -5.6257,3.6937 -0.6323,0.2895 -1.3305,0.4073 -1.9957,0.6113 5.4174,3.3545 10.8763,6.643 16.2523,10.0636 0.1477,0.094 -0.4965,0.1177 -0.5228,-0.053 -0.068,-0.4335 0.1748,-0.8624 0.3255,-1.274 0.9671,-2.6448 2.9428,-4.6303 4.498,-6.9295 4.4648,-5.7214 9.5156,-11.3477 16.1818,-14.5017 0.729,-0.2647 1.4338,-0.6112 2.1876,-0.7948 0.4155,-0.1013 1.6419,0.1792 1.2818,-0.052 -24.6423,-15.7846 -19.3907,-4.052 -15.0998,-10.9424 0.2745,-0.4402 -2.4687,2.1507 -1.3564,0.7639 -4.0874,2.2369 -7.8737,5.0228 -11.46,7.9853 -5.888,4.9023 -11.9163,9.6498 -18.408,13.7373 -2.7,1.7045 -5.4026,3.3314 -8.2749,4.7337 -0.699,0.3412 -1.3908,0.7057 -2.1235,0.9669 -0.4897,0.174 -1.9489,0.03 -1.5232,0.3315 5.1518,3.6108 10.7231,6.5826 16.0847,9.874 -0.21,-0.06 -0.51,0.01 -0.6315,-0.1717 -1.2242,-1.8298 3.9356,-8.7917 4.6429,-10.3833 5.227,-7.8881 10.9196,-15.5757 17.493,-22.3932 3.626,-3.3552 8.3774,-8.7712 13.9167,-7.0855 -5.2723,-3.2406 -10.6418,-6.3281 -15.8169,-9.7218 -0.225,-0.147 0.5745,-0.2798 0.7962,-0.1283 0.168,0.1148 0,0.4283 -0.1043,0.6015 -0.2595,0.4178 -0.618,0.7668 -0.9637,1.1166 -1.0052,1.0178 -2.5146,2.2483 -3.5745,3.1464 -5.567,4.7667 -11.4983,9.0928 -17.0976,13.8233 -5.4777,4.0201 -11.1778,7.8301 -17.5263,10.3489 -0.6697,0.1935 -1.3266,0.441 -2.0096,0.5812 -0.4582,0.095 -1.7889,-0.1365 -1.3978,0.12 5.2053,3.412 10.7965,6.2012 16.074,9.5003 0.075,0.045 -1.3695,0.037 -1.4545,-0.1815 -0.097,-0.2498 0.1275,-0.5205 0.1912,-0.7813 2.0624,-3.2859 5.1963,-5.7572 7.915,-8.4758 4.1294,-3.5433 8.6777,-6.4173 13.6553,-8.6403 0,0 -16.5122,-10.8644 -16.5122,-10.8644 z"
       inkscape:connector-curvature="0" />
  </g>
</svg>
